<?xml version="1.0" encoding="iso-8859-1"?>
<!-- Uploaded to: SVG Repo, www.svgrepo.com, Generator: SVG Repo Mixer Tools -->
<svg version="1.1" id="Layer_1" xmlns="http://www.w3.org/2000/svg" xmlns:xlink="http://www.w3.org/1999/xlink" 
	 viewBox="0 0 297.225 297.225" xml:space="preserve">
<g>
	
		<rect x="195.715" y="32.964" transform="matrix(0.7071 0.7071 -0.7071 0.7071 110.2404 -154.1985)" style="fill:#28D2E4;" width="91.078" height="46.018"/>
	
		<rect x="91.279" y="66.274" transform="matrix(0.7071 0.7071 -0.7071 0.7071 153.4991 -49.7623)" style="fill:#13829B;" width="91.078" height="188.27"/>
	<path style="fill:#FFDB77;" d="M97.111,200.113L97.111,200.113c7.01,7.01,18.376,7.01,25.386,0l54.027-54.027
		c7.01-7.01,7.01-18.376,0-25.386l0,0c-7.01-7.01-18.376-7.01-25.386,0l-54.027,54.027
		C90.101,181.737,90.101,193.102,97.111,200.113z"/>
	<path style="fill:#28D2E4;" d="M16.451,216.37l64.402,64.402l-52.795,8.95c-11.411,0.141-20.698-9.146-20.557-20.557L16.451,216.37
		z"/>
	
		<rect x="13.915" y="222.495" transform="matrix(-0.7071 -0.7071 0.7071 -0.7071 -66.6335 447.9388)" style="fill:#28D2E4;" width="91.078" height="30.549"/>
	<g>
		
			<rect x="168.643" y="67.765" transform="matrix(-0.7071 -0.7071 0.7071 -0.7071 306.9135 293.2064)" style="fill:#28D2E4;" width="91.078" height="30.549"/>
		<g>
			<path style="fill:#22313F;" d="M295.028,66.599L230.625,2.197c-2.926-2.927-7.678-2.929-10.607,0
				c-9.554,9.554-199.3,199.3-208.871,208.871c-1.014,1.013-1.789,2.406-2.071,3.967c-0.005,0.028-0.015,0.054-0.02,0.082
				l-8.949,52.795c-0.065,0.384-0.1,0.771-0.105,1.161c-0.192,15.53,12.324,28.151,27.794,28.151c0.118,0,0.237,0,0.355-0.002
				c0.389-0.005,0.777-0.04,1.161-0.105l52.795-8.949c0.028-0.005,0.055-0.015,0.083-0.02c1.543-0.279,2.941-1.045,3.967-2.071
				c10.12-10.12,202.512-202.512,208.871-208.871C297.957,74.277,297.957,69.528,295.028,66.599z M192.782,50.646
				c6.537,6.537,47.249,47.249,53.796,53.796l-10.995,10.995l-53.796-53.796L192.782,50.646z M27.446,282.219
				c-6.791-0.184-12.257-5.656-12.441-12.441l6.413-37.834l43.862,43.862L27.446,282.219z M80.854,270.167L27.057,216.37
				l10.995-10.995l53.796,53.796L80.854,270.167z M102.455,248.565l-53.796-53.796L171.181,72.247l53.796,53.796L102.455,248.565z
				 M257.185,93.836c-6.537-6.537-47.249-47.249-53.796-53.796l21.933-21.934l53.796,53.796L257.185,93.836z"/>
			<path style="fill:#22313F;" d="M145.835,115.397l-54.026,54.026c-9.947,9.947-9.948,26.045,0,35.993
				c9.947,9.947,26.045,9.948,35.993,0l54.026-54.026c9.947-9.947,9.948-26.045,0-35.993
				C171.88,105.45,155.782,105.449,145.835,115.397z M171.221,140.783l-54.026,54.026c-4.076,4.074-10.705,4.074-14.78,0
				c-4.075-4.075-4.075-10.705,0-14.78l54.026-54.026c4.076-4.075,10.704-4.074,14.78,0
				C175.296,130.078,175.296,136.708,171.221,140.783z"/>
		</g>
	</g>
</g>
</svg>